<?xml version="1.0" encoding="utf-8"?>
<svg version="1.1" id="Capa_1" xmlns="http://www.w3.org/2000/svg" xmlns:xlink="http://www.w3.org/1999/xlink" x="0px" y="0px"
	 viewBox="0 0 35 35" style="enable-background:new 0 0 35 35;" xml:space="preserve">
<style type="text/css">
	.st0{fill:#FFFFFF;}
</style>
<g>
	<path class="st0" d="M24.42,28.01c-1.09,0-1.96,0.87-1.96,1.96c0,1.09,0.87,1.97,1.95,1.98c1.06,0.01,1.97-0.89,1.98-1.97
		C26.39,28.9,25.5,28.01,24.42,28.01z"/>
	<path class="st0" d="M13.55,28.01c-1.09,0-1.96,0.87-1.96,1.96c0,1.09,0.87,1.97,1.95,1.98c1.06,0.01,1.97-0.89,1.98-1.97
		C15.52,28.9,14.63,28.01,13.55,28.01z"/>
	<g>
		<path class="st0" d="M10.36,9.09l-0.01-0.06l-0.03,0.01c0.01,0.01,0.01,0.02,0.02,0.03C10.35,9.08,10.36,9.09,10.36,9.09z"/>
		<polygon class="st0" points="11.11,11.97 11.11,11.97 11.11,11.97 		"/>
		<path class="st0" d="M33.93,15.3c-0.13-0.64-0.71-1.08-1.33-1.13c-0.77-0.07-1.34,0.26-1.72,0.96c-0.56,1.01-1.09,2.03-1.65,3.04
			c-0.09,0.16-0.75,1.26-1.58,2.57c-0.45,0.61-1.52,1.68-3.5,1.79v0h-0.17v0.01h-7.14c-2.7-0.07-3.54-2.17-3.74-2.84l-0.05-0.2
			l-0.82-3.16l-1.13-4.37c-0.38-1.46-0.97-2.61-1.48-3.42C9.11,7.73,8.66,7.26,8.57,7.17C7.02,5.7,5.29,4.45,3.52,3.25
			C3.22,3.05,2.78,2.98,2.4,3C1.75,3.04,1.23,3.54,1.08,4.14C0.9,4.9,1.14,5.5,1.78,5.99C2.95,6.9,4.17,7.77,5.31,8.71
			c0.53,0.51,1.56,1.79,2.27,4.53c0.01,0.04,0.02,0.07,0.03,0.11l2.29,8.88c0.42,1.29,1.79,4.04,5.82,4.04h7.59
			c0.16,0,0.31,0,0.45-0.01h0.25h1c1.55,0,2.62-0.43,3.36-0.99c0.03-0.02,0.06-0.04,0.09-0.07c0.26-0.21,0.47-0.43,0.65-0.65
			c0.07-0.08,0.15-0.17,0.23-0.28c0.15-0.19,0.32-0.4,0.5-0.65c0.06-0.08,0.12-0.17,0.19-0.27c0.5-0.72,1.11-1.69,1.78-2.98
			c0.75-1.27,1.41-2.59,2.04-3.93C34.01,16.11,34.01,15.66,33.93,15.3z"/>
	</g>
</g>
</svg>
