<?xml version="1.0" encoding="utf-8"?>
<!-- Generator: Adobe Illustrator 26.1.0, SVG Export Plug-In . SVG Version: 6.00 Build 0)  -->
<svg version="1.1" id="Capa_1" xmlns="http://www.w3.org/2000/svg" xmlns:xlink="http://www.w3.org/1999/xlink" x="0px" y="0px"
	 viewBox="0 0 35 35" style="enable-background:new 0 0 35 35;" xml:space="preserve">
<style type="text/css">
	.st0{fill:#FFFFFF;}
</style>
<g>
	<path class="st0" d="M25.78,8.93c-0.62-4.38-4.16-7.23-9.04-7.24h-0.01c-2.84,0.06-5.32,1.64-6.82,4.32
		c-0.95,1.7-1.31,3.67-1.07,5.85c0.37,3.33,1.76,6.04,4.13,8.03c1.34,1.13,2.78,1.7,4.29,1.7c0.24,0,0.49-0.01,0.74-0.04
		c1.5-0.19,2.84-0.82,3.98-1.9C25.08,16.72,26.36,13.11,25.78,8.93z M19.88,18.19c-1.58,1.32-3.3,1.33-4.97,0.03
		c-2.27-1.76-3.56-4.26-3.76-7.23c0.06-2.54,0.75-4.24,2.25-5.51c1.62-1.37,4.11-1.78,6.19-1.03c2.05,0.75,3.4,2.44,3.8,4.77
		C23.99,12.68,22.77,15.79,19.88,18.19z"/>
	<g>
		<g>
			<path class="st0" d="M32.78,31.94c-0.01,0.29-0.03,0.69-0.08,1.09c-0.09,0.66-0.55,1.09-1.18,1.09h-0.2
				c-0.65-0.09-1.06-0.64-1.02-1.39c0.2-3.29-0.93-5.94-3.37-7.86c-0.26-0.21-0.54-0.42-0.87-0.65l-0.3-0.2
				c-0.3-0.2-0.61-0.4-0.91-0.6c-0.06-0.04-0.11-0.08-0.16-0.12c-0.37-0.31-0.52-0.72-0.43-1.2c0.08-0.48,0.47-0.86,0.93-0.91
				c0.31-0.04,0.63,0.01,0.83,0.13c0.53,0.31,0.99,0.59,1.41,0.86c0.93,0.67,1.7,1.33,2.36,2.03c1.74,1.86,2.69,4.23,3.01,7.46
				C32.79,31.76,32.79,31.84,32.78,31.94z"/>
		</g>
		<path class="st0" d="M32.8,31.67c-0.01,0.09-0.01,0.17-0.02,0.27c-0.01,0.29-0.03,0.69-0.08,1.09c-0.09,0.66-0.55,1.09-1.18,1.09
			h-0.2c-0.65-0.09-1.06-0.64-1.02-1.39c0.2-3.29-0.93-5.94-3.37-7.86c-0.26-0.21-0.54-0.42-0.87-0.65l-0.3-0.2
			c-0.3-0.2-0.61-0.4-0.91-0.6c-0.06-0.04-0.11-0.08-0.16-0.12c-0.37-0.31-0.52-0.72-0.43-1.2c0.08-0.48,0.47-0.86,0.93-0.91
			c0.31-0.04,0.63,0.01,0.83,0.13c0.53,0.31,0.99,0.59,1.41,0.86c0.93,0.67,1.7,1.33,2.36,2.03C31.53,26.07,32.48,28.44,32.8,31.67z
			"/>
	</g>
	<g>
		<path class="st0" d="M9.98,23.3c-0.05,0.04-0.1,0.08-0.16,0.12c-0.29,0.2-0.59,0.4-0.89,0.59l-0.32,0.21
			C8.28,24.45,8,24.66,7.74,24.87c-2.43,1.92-3.57,4.57-3.37,7.86c0.05,0.75-0.36,1.3-1.02,1.39h-0.2c-0.63,0-1.09-0.43-1.18-1.09
			c-0.05-0.39-0.07-0.79-0.08-1.08c-0.01-0.1-0.01-0.19-0.01-0.26c0.16-1.63,0.47-3.03,0.96-4.26c0.5-1.23,1.17-2.29,2.04-3.22
			c0.66-0.7,1.43-1.37,2.36-2.03c0.42-0.27,0.88-0.55,1.41-0.86c0.21-0.12,0.52-0.17,0.83-0.13c0.46,0.05,0.85,0.43,0.93,0.91
			C10.5,22.58,10.35,22.99,9.98,23.3z"/>
	</g>
</g>
</svg>
